<svg width="128" height="126" viewBox="0 0 128 126" fill="none" xmlns="http://www.w3.org/2000/svg">
<path fill-rule="evenodd" clip-rule="evenodd" d="M75.9867 0.9576C73.4941 -2.81632e-07 70.3278 0 64.0019 0C57.676 0 54.5165 -2.81632e-07 52.0171 0.9576C50.3726 1.586 48.8772 2.51232 47.6169 3.68327C46.3567 4.85422 45.3565 6.24668 44.674 7.7805C44.0407 9.1854 43.7982 10.8297 43.6971 13.2174C43.6491 14.9468 43.1317 16.6363 42.1937 18.1273C41.2556 19.6184 39.9277 20.862 38.3346 21.7413C36.7093 22.5862 34.8823 23.0337 33.0228 23.0425C31.1633 23.0513 29.3316 22.6211 27.6972 21.7917C25.4201 20.6703 23.7696 20.0529 22.1393 19.8513C18.5727 19.4161 14.9664 20.3124 12.1015 22.3461C9.95915 23.8707 8.37599 26.4159 5.21642 31.5C2.05012 36.5841 0.473703 39.123 0.116652 41.6115C-0.354926 44.9253 0.615177 48.2769 2.81138 50.9292C3.80843 52.1388 5.21642 53.1531 7.39242 54.4257C10.6059 56.2968 12.6673 59.4846 12.6673 63C12.6673 66.5154 10.6059 69.7032 7.39915 71.568C5.21642 72.8469 3.80843 73.8612 2.80464 75.0708C1.72383 76.3825 0.930118 77.8806 0.468891 79.4794C0.0076632 81.0783 -0.112032 82.7464 0.116652 84.3885C0.473703 86.8707 2.05012 89.4159 5.21642 94.5C8.38273 99.5841 9.95915 102.123 12.1015 103.654C14.9579 105.689 18.5688 106.583 22.1393 106.149C23.7696 105.947 25.4201 105.33 27.6972 104.208C29.3324 103.378 31.1654 102.947 33.0262 102.956C34.887 102.965 36.7152 103.413 38.3414 104.259C41.6155 106.023 43.5557 109.267 43.6971 112.783C43.7982 115.177 44.0407 116.815 44.674 118.219C46.0483 121.307 48.6891 123.764 52.0171 125.042C54.5097 126 57.676 126 64.0019 126C70.3278 126 73.4941 126 75.9867 125.042C77.6313 124.414 79.1267 123.488 80.3869 122.317C81.6471 121.146 82.6473 119.753 83.3298 118.219C83.9631 116.815 84.2056 115.177 84.3067 112.783C84.4414 109.267 86.3884 106.016 89.6692 104.259C91.2945 103.414 93.1215 102.966 94.981 102.957C96.8405 102.949 98.6723 103.379 100.307 104.208C102.584 105.33 104.234 105.947 105.865 106.149C109.435 106.59 113.046 105.689 115.902 103.654C118.045 102.129 119.628 99.5841 122.787 94.5C125.954 89.4159 127.53 86.877 127.887 84.3885C128.115 82.746 127.994 81.0776 127.532 79.4788C127.069 77.88 126.274 76.3821 125.192 75.0708C124.195 73.8612 122.787 72.8469 120.611 71.5743C117.398 69.7032 115.336 66.5154 115.336 63C115.336 59.4846 117.398 56.2968 120.605 54.432C122.787 53.1531 124.195 52.1388 125.199 50.9292C126.28 49.6175 127.074 48.1194 127.535 46.5206C127.996 44.9217 128.116 43.2536 127.887 41.6115C127.53 39.1293 125.954 36.5841 122.787 31.5C119.621 26.4159 118.045 23.877 115.902 22.3461C113.037 20.3124 109.431 19.4161 105.865 19.8513C104.234 20.0529 102.584 20.6703 100.307 21.7917C98.6714 22.6222 96.8384 23.0531 94.9776 23.0443C93.1168 23.0354 91.2886 22.5873 89.6625 21.7413C88.0706 20.8612 86.744 19.6173 85.8072 18.1263C84.8704 16.6353 84.3541 14.9462 84.3067 13.2174C84.2056 10.8234 83.9631 9.1854 83.3298 7.7805C82.6473 6.24668 81.6471 4.85422 80.3869 3.68327C79.1267 2.51232 77.6313 1.586 75.9867 0.9576ZM64.0019 81.9C75.2524 81.9 84.3673 73.4391 84.3673 63C84.3673 52.5609 75.2457 44.1 64.0019 44.1C52.7582 44.1 43.6365 52.5609 43.6365 63C43.6365 73.4391 52.7582 81.9 64.0019 81.9Z" fill="#F5F5F5"/>
</svg>
