<svg width="44" height="44" viewBox="0 0 44 44" fill="none" xmlns="http://www.w3.org/2000/svg">
<path d="M22 28.4165C20.2981 28.4165 18.666 27.7405 17.4627 26.5371C16.2593 25.3337 15.5833 23.7016 15.5833 21.9998C15.5833 20.298 16.2593 18.6659 17.4627 17.4626C18.666 16.2592 20.2981 15.5832 22 15.5832C23.7018 15.5832 25.3339 16.2592 26.5372 17.4626C27.7406 18.6659 28.4166 20.298 28.4166 21.9998C28.4166 23.7016 27.7406 25.3337 26.5372 26.5371C25.3339 27.7405 23.7018 28.4165 22 28.4165ZM35.6216 23.7782C35.695 23.1915 35.75 22.6048 35.75 21.9998C35.75 21.3948 35.695 20.7898 35.6216 20.1665L39.49 17.1782C39.8383 16.9032 39.93 16.4082 39.7099 16.0048L36.0433 9.66151C35.8233 9.25817 35.3283 9.09317 34.9249 9.25817L30.3599 11.0915C29.4066 10.3765 28.4166 9.75317 27.2616 9.29484L26.5833 4.43651C26.546 4.22057 26.4336 4.02479 26.2658 3.88385C26.098 3.74291 25.8857 3.66592 25.6666 3.66651H18.3333C17.8749 3.66651 17.49 3.99651 17.4166 4.43651L16.7383 9.29484C15.5833 9.75317 14.5933 10.3765 13.6399 11.0915L9.07495 9.25817C8.67162 9.09317 8.17662 9.25817 7.95662 9.66151L4.28995 16.0048C4.05162 16.4082 4.16162 16.9032 4.50995 17.1782L8.37828 20.1665C8.30495 20.7898 8.24995 21.3948 8.24995 21.9998C8.24995 22.6048 8.30495 23.1915 8.37828 23.7782L4.50995 26.8215C4.16162 27.0965 4.05162 27.5915 4.28995 27.9948L7.95662 34.3382C8.17662 34.7415 8.67162 34.8882 9.07495 34.7415L13.6399 32.8898C14.5933 33.6232 15.5833 34.2465 16.7383 34.7048L17.4166 39.5632C17.49 40.0032 17.8749 40.3332 18.3333 40.3332H25.6666C26.125 40.3332 26.51 40.0032 26.5833 39.5632L27.2616 34.7048C28.4166 34.2282 29.4066 33.6232 30.3599 32.8898L34.9249 34.7415C35.3283 34.8882 35.8233 34.7415 36.0433 34.3382L39.7099 27.9948C39.93 27.5915 39.8383 27.0965 39.49 26.8215L35.6216 23.7782Z" fill="#F5F5F5"/>
</svg>
