<svg width="128" height="128" viewBox="0 0 128 128" fill="none" xmlns="http://www.w3.org/2000/svg">
<path d="M64 8V36C64 39.1798 65.2621 42.2297 67.5091 44.4796C69.756 46.7296 72.8042 47.9958 75.984 48H103.984V56.28C99.8298 57.0005 96.0009 58.9904 93.024 61.976L58.728 96.272C54.861 100.15 52.1136 105.001 50.776 110.312L48.36 119.984H36C32.8174 119.984 29.7652 118.72 27.5147 116.469C25.2643 114.219 24 111.167 24 107.984V20C24 16.8174 25.2643 13.7652 27.5147 11.5147C29.7652 9.26428 32.8174 8 36 8H64ZM103.984 64.48C101.983 65.0714 100.162 66.1551 98.688 67.632L64.4 101.92C61.5616 104.773 59.5443 108.338 58.56 112.24L56.136 121.928C55.9322 122.744 55.9429 123.599 56.167 124.41C56.3912 125.221 56.8212 125.96 57.4153 126.556C58.0094 127.152 58.7474 127.584 59.5578 127.81C60.3681 128.037 61.2232 128.05 62.04 127.848L71.728 125.424C75.6301 124.44 79.1951 122.422 82.048 119.584L116.352 85.28C118.317 83.3189 119.572 80.7584 119.919 78.0037C120.266 75.2491 119.684 72.4575 118.265 70.0707C116.847 67.6839 114.673 65.8382 112.088 64.8257C109.503 63.8131 106.646 63.6915 103.984 64.48ZM71.992 10V36C71.992 37.0609 72.4134 38.0783 73.1636 38.8284C73.9137 39.5786 74.9311 40 75.992 40H101.992L71.992 10Z" fill="white"/>
</svg>
