<svg width="128" height="128" viewBox="0 0 128 128" fill="none" xmlns="http://www.w3.org/2000/svg">
<path d="M84 69.3335C84 68.2726 83.5786 67.2552 82.8284 66.5051C82.0783 65.7549 81.0609 65.3335 80 65.3335H48C46.9391 65.3335 45.9217 65.7549 45.1716 66.5051C44.4214 67.2552 44 68.2726 44 69.3335C44 70.3944 44.4214 71.4118 45.1716 72.1619C45.9217 72.9121 46.9391 73.3335 48 73.3335H80C81.0609 73.3335 82.0783 72.9121 82.8284 72.1619C83.5786 71.4118 84 70.3944 84 69.3335ZM84 90.6668C84 89.606 83.5786 88.5885 82.8284 87.8384C82.0783 87.0883 81.0609 86.6668 80 86.6668H48C46.9391 86.6668 45.9217 87.0883 45.1716 87.8384C44.4214 88.5885 44 89.606 44 90.6668C44 91.7277 44.4214 92.7451 45.1716 93.4953C45.9217 94.2454 46.9391 94.6668 48 94.6668H80C81.0609 94.6668 82.0783 94.2454 82.8284 93.4953C83.5786 92.7451 84 91.7277 84 90.6668Z" fill="#F5F5F5"/>
<path fill-rule="evenodd" clip-rule="evenodd" d="M37.3346 12C33.4448 12 29.7143 13.5452 26.9637 16.2958C24.2132 19.0463 22.668 22.7768 22.668 26.6667V101.333C22.668 105.223 24.2132 108.954 26.9637 111.704C29.7143 114.455 33.4448 116 37.3346 116H90.668C94.5578 116 98.2883 114.455 101.039 111.704C103.789 108.954 105.335 105.223 105.335 101.333V42.496C105.335 40.464 104.673 38.4907 103.447 36.8693L87.4573 15.7067C86.5873 14.5553 85.4622 13.6213 84.1703 12.9782C82.8785 12.335 81.4551 12.0002 80.012 12H37.3346ZM30.668 26.6667C30.668 22.9867 33.6546 20 37.3346 20H76.0013V43.4507C76.0013 45.6587 77.7933 47.4507 80.0013 47.4507H97.3346V101.333C97.3346 105.013 94.348 108 90.668 108H37.3346C33.6546 108 30.668 105.013 30.668 101.333V26.6667Z" fill="#F5F5F5"/>
</svg>
