<svg width="44" height="44" viewBox="0 0 44 44" fill="none" xmlns="http://www.w3.org/2000/svg">
<path d="M29.3333 5.5H9.16667C7.15 5.5 5.5 7.15 5.5 9.16667V34.8333C5.5 36.85 7.15 38.5 9.16667 38.5H34.8333C36.85 38.5 38.5 36.85 38.5 34.8333V14.6667L29.3333 5.5ZM14.6667 12.8333H20.1667C21.175 12.8333 22 13.6583 22 14.6667C22 15.675 21.175 16.5 20.1667 16.5H14.6667C13.6583 16.5 12.8333 15.675 12.8333 14.6667C12.8333 13.6583 13.6583 12.8333 14.6667 12.8333ZM29.3333 31.1667H14.6667C13.6583 31.1667 12.8333 30.3417 12.8333 29.3333C12.8333 28.325 13.6583 27.5 14.6667 27.5H29.3333C30.3417 27.5 31.1667 28.325 31.1667 29.3333C31.1667 30.3417 30.3417 31.1667 29.3333 31.1667ZM29.3333 23.8333H14.6667C13.6583 23.8333 12.8333 23.0083 12.8333 22C12.8333 20.9917 13.6583 20.1667 14.6667 20.1667H29.3333C30.3417 20.1667 31.1667 20.9917 31.1667 22C31.1667 23.0083 30.3417 23.8333 29.3333 23.8333ZM27.5 14.6667V9.16667L34.8333 16.5H29.3333C28.325 16.5 27.5 15.675 27.5 14.6667Z" fill="#F5F5F5"/>
</svg>
